<svg width="162" height="90" viewBox="0 0 162 90" fill="none" xmlns="http://www.w3.org/2000/svg">
<path d="M0 12C0 6.34315 0 3.51472 1.75736 1.75736C3.51472 0 6.34315 0 12 0H78C83.6569 0 86.4853 0 88.2426 1.75736C90 3.51472 90 6.34315 90 12V78C90 83.6569 90 86.4853 88.2426 88.2426C86.4853 90 83.6569 90 78 90H12C6.34315 90 3.51472 90 1.75736 88.2426C0 86.4853 0 83.6569 0 78V12Z" fill="black"/>
<path d="M9 19C9 14.286 9 11.9289 10.4645 10.4645C11.9289 9 14.286 9 19 9H71.8551C76.6315 9 79.0197 9 80.4884 10.49C81.9571 11.98 81.9228 14.368 81.854 19.1439L81.12 70.1515C81.0997 71.5651 80.3744 72.8751 79.1872 73.6426L78.4595 74.1131C77.313 74.8542 75.8149 74.7503 74.7818 73.8578C73.1517 72.4498 70.6164 73.1118 69.8829 75.1371L69.1869 77.059C67.7302 81.0811 61.9679 80.8584 60.8261 76.7358C60.1691 74.3638 57.6911 72.995 55.3334 73.7016L55.2363 73.7307C54.2684 74.0208 53.231 73.976 52.2918 73.6036L49.2922 72.4141L49.1321 72.3649C47.7674 71.9449 47.085 71.7349 46.4282 71.7105C45.317 71.6692 44.2238 71.9995 43.3213 72.6492C42.7879 73.0332 42.336 73.5859 41.4321 74.6913C40.295 76.0819 39.7264 76.7772 39.0604 77.2053C37.9317 77.9307 36.5589 78.1721 35.2504 77.8752C34.4783 77.7 33.7067 77.2404 32.1634 76.321L26.5904 73.0013C25.5567 72.3855 25.0398 72.0776 24.5001 71.9039C23.5951 71.6126 22.6258 71.5853 21.7059 71.8253C21.1573 71.9684 20.6239 72.2468 19.5572 72.8035C16.7104 74.2892 15.287 75.032 14.1298 75.0621C12.1742 75.1128 10.3686 74.0185 9.50878 72.2612C9 71.2214 9 69.6158 9 66.4047V19Z" fill="#CC2D2D"/>
<path d="M22.2727 37.4416C22.2727 36.918 22.6972 36.4935 23.2208 36.4935C23.7444 36.4935 24.1688 36.918 24.1688 37.4416V70.7581C24.1688 71.1273 23.7761 71.3639 23.4498 71.1914C23.3065 71.1156 23.1351 71.1156 22.9918 71.1914C22.6654 71.3639 22.2727 71.1273 22.2727 70.7581V37.4416Z" fill="#982929"/>
<path d="M13 40.9481C13 40.4245 13.4245 40 13.9481 40C14.4716 40 14.8961 40.4245 14.8961 40.9481V74.2646C14.8961 74.6338 14.5034 74.8704 14.1771 74.6979C14.0338 74.6221 13.8623 74.6221 13.719 74.6979C13.3927 74.8704 13 74.6338 13 74.2646V40.9481Z" fill="#982929"/>
<path d="M75.9167 40.3647C75.9167 39.8411 76.3411 39.4167 76.8647 39.4167C77.3883 39.4167 77.8128 39.8411 77.8128 40.3647V73.6813C77.8128 74.0504 77.4201 74.287 77.0937 74.1145C76.9504 74.0388 76.779 74.0388 76.6357 74.1145C76.3093 74.287 75.9167 74.0504 75.9167 73.6813V40.3647Z" fill="#982929"/>
<path d="M35.5455 42.1818C35.5455 41.6582 35.9699 41.2338 36.4935 41.2338C37.0171 41.2338 37.4416 41.6582 37.4416 42.1818V76.4444C37.4416 76.8122 37.0482 77.0462 36.725 76.8707C36.5806 76.7924 36.4064 76.7924 36.2621 76.8707C35.9388 77.0462 35.5455 76.8122 35.5455 76.4444V42.1818Z" fill="#982929"/>
<path d="M44 38C44 37.4477 44.4477 37 45 37C45.5523 37 46 37.4477 46 38V71.1459C46 71.5383 45.587 71.7935 45.2361 71.618C45.0875 71.5437 44.9125 71.5437 44.7639 71.618C44.413 71.7935 44 71.5383 44 71.1459V38Z" fill="#982929"/>
<path d="M53 39.9481C53 39.4245 53.4245 39 53.9481 39C54.4716 39 54.8961 39.4245 54.8961 39.9481V73.2646C54.8961 73.6338 54.5034 73.8704 54.1771 73.6979C54.0338 73.6221 53.8623 73.6221 53.719 73.6979C53.3927 73.8704 53 73.6338 53 73.2646V39.9481Z" fill="#982929"/>
<path d="M64 44.9481C64 44.4245 64.4245 44 64.9481 44C65.4716 44 65.8961 44.4245 65.8961 44.9481V79.2106C65.8961 79.5784 65.5028 79.8125 65.1795 79.637C65.0352 79.5586 64.861 79.5586 64.7166 79.637C64.3933 79.8125 64 79.5784 64 79.2106V44.9481Z" fill="#982929"/>
<path d="M71 39.9519C71 39.4262 71.4262 39 71.9519 39C72.4746 39 72.8995 39.4215 72.9037 39.9442L73.165 72.3801C73.1687 72.8445 72.7145 73.1747 72.2739 73.0278L72.1099 72.9732C71.9627 72.9241 71.8005 72.9639 71.6927 73.0755C71.441 73.3362 71 73.1581 71 72.7958V39.9519Z" fill="#982929"/>
<path d="M63 37.2131C63 42.656 63 46.1711 46.5872 67.9083C45.861 68.87 45.498 69.3508 45 69.3508C44.502 69.3508 44.139 68.87 43.4128 67.9083C27 46.1711 27 42.656 27 37.2131C27 27.7066 35.0589 20 45 20C54.9411 20 63 27.7066 63 37.2131Z" fill="#040404"/>
<ellipse cx="45.11" cy="38.1111" rx="11.11" ry="11.1111" fill="#CC2D2D"/>
<path d="M108.754 19.4453C108.582 21.2656 107.91 22.6875 106.738 23.7109C105.566 24.7266 104.008 25.2344 102.062 25.2344C100.703 25.2344 99.5039 24.9141 98.4648 24.2734C97.4336 23.625 96.6367 22.707 96.0742 21.5195C95.5117 20.332 95.2188 18.9531 95.1953 17.3828V15.7891C95.1953 14.1797 95.4805 12.7617 96.0508 11.5352C96.6211 10.3086 97.4375 9.36328 98.5 8.69922C99.5703 8.03516 100.805 7.70312 102.203 7.70312C104.086 7.70312 105.602 8.21484 106.75 9.23828C107.898 10.2617 108.566 11.707 108.754 13.5742H105.801C105.66 12.3477 105.301 11.4648 104.723 10.9258C104.152 10.3789 103.312 10.1055 102.203 10.1055C100.914 10.1055 99.9219 10.5781 99.2266 11.5234C98.5391 12.4609 98.1875 13.8398 98.1719 15.6602V17.1719C98.1719 19.0156 98.5 20.4219 99.1562 21.3906C99.8203 22.3594 100.789 22.8438 102.062 22.8438C103.227 22.8438 104.102 22.582 104.688 22.0586C105.273 21.5352 105.645 20.6641 105.801 19.4453H108.754ZM107.365 18.543C107.365 17.3008 107.612 16.1836 108.104 15.1914C108.596 14.1914 109.287 13.4258 110.178 12.8945C111.069 12.3555 112.092 12.0859 113.248 12.0859C114.959 12.0859 116.346 12.6367 117.408 13.7383C118.479 14.8398 119.057 16.3008 119.143 18.1211L119.155 18.7891C119.155 20.0391 118.912 21.1562 118.428 22.1406C117.951 23.125 117.264 23.8867 116.365 24.4258C115.475 24.9648 114.444 25.2344 113.272 25.2344C111.483 25.2344 110.049 24.6406 108.971 23.4531C107.901 22.2578 107.365 20.668 107.365 18.6836V18.543ZM110.213 18.7891C110.213 20.0938 110.483 21.1172 111.022 21.8594C111.561 22.5938 112.311 22.9609 113.272 22.9609C114.233 22.9609 114.979 22.5859 115.51 21.8359C116.049 21.0859 116.319 19.9883 116.319 18.543C116.319 17.2617 116.041 16.2461 115.487 15.4961C114.94 14.7461 114.194 14.3711 113.248 14.3711C112.319 14.3711 111.58 14.7422 111.033 15.4844C110.487 16.2188 110.213 17.3203 110.213 18.7891ZM114.033 7H117.28L114.033 10.5508H111.748L114.033 7ZM117.79 18.5664C117.79 16.6133 118.243 15.0469 119.149 13.8672C120.055 12.6797 121.27 12.0859 122.793 12.0859C124.137 12.0859 125.223 12.5547 126.051 13.4922V7H128.899V25H126.321L126.18 23.6875C125.329 24.7188 124.192 25.2344 122.77 25.2344C121.286 25.2344 120.083 24.6367 119.161 23.4414C118.247 22.2461 117.79 20.6211 117.79 18.5664ZM120.637 18.8125C120.637 20.1016 120.883 21.1094 121.375 21.8359C121.875 22.5547 122.583 22.9141 123.497 22.9141C124.661 22.9141 125.512 22.3945 126.051 21.3555V15.9414C125.528 14.9258 124.684 14.418 123.52 14.418C122.598 14.418 121.887 14.7852 121.387 15.5195C120.887 16.2461 120.637 17.3438 120.637 18.8125ZM131.659 25H128.811V12.3203H131.659V25ZM128.635 9.02734C128.635 8.58984 128.772 8.22656 129.046 7.9375C129.327 7.64844 129.725 7.50391 130.241 7.50391C130.757 7.50391 131.155 7.64844 131.436 7.9375C131.717 8.22656 131.858 8.58984 131.858 9.02734C131.858 9.45703 131.717 9.81641 131.436 10.1055C131.155 10.3867 130.757 10.5273 130.241 10.5273C129.725 10.5273 129.327 10.3867 129.046 10.1055C128.772 9.81641 128.635 9.45703 128.635 9.02734ZM131.032 18.5664C131.032 16.5977 131.493 15.0273 132.415 13.8555C133.345 12.6758 134.575 12.0859 136.106 12.0859C137.552 12.0859 138.688 12.5898 139.517 13.5977L139.645 12.3203H142.212V24.6133C142.212 26.2773 141.692 27.5898 140.653 28.5508C139.622 29.5117 138.228 29.9922 136.47 29.9922C135.54 29.9922 134.63 29.7969 133.739 29.4062C132.856 29.0234 132.185 28.5195 131.724 27.8945L133.071 26.1836C133.946 27.2227 135.024 27.7422 136.306 27.7422C137.251 27.7422 137.997 27.4844 138.544 26.9688C139.091 26.4609 139.364 25.7109 139.364 24.7188V23.8633C138.544 24.7773 137.45 25.2344 136.083 25.2344C134.599 25.2344 133.384 24.6445 132.438 23.4648C131.501 22.2852 131.032 20.6523 131.032 18.5664ZM133.868 18.8125C133.868 20.0859 134.126 21.0898 134.642 21.8242C135.165 22.5508 135.888 22.9141 136.81 22.9141C137.958 22.9141 138.81 22.4219 139.364 21.4375V15.8594C138.825 14.8984 137.981 14.418 136.833 14.418C135.895 14.418 135.165 14.7891 134.642 15.5312C134.126 16.2734 133.868 17.3672 133.868 18.8125ZM141.374 18.543C141.374 17.3008 141.62 16.1836 142.112 15.1914C142.605 14.1914 143.296 13.4258 144.187 12.8945C145.077 12.3555 146.101 12.0859 147.257 12.0859C148.968 12.0859 150.355 12.6367 151.417 13.7383C152.487 14.8398 153.066 16.3008 153.152 18.1211L153.163 18.7891C153.163 20.0391 152.921 21.1562 152.437 22.1406C151.96 23.125 151.273 23.8867 150.374 24.4258C149.484 24.9648 148.452 25.2344 147.28 25.2344C145.491 25.2344 144.058 24.6406 142.98 23.4531C141.909 22.2578 141.374 20.668 141.374 18.6836V18.543ZM144.222 18.7891C144.222 20.0938 144.491 21.1172 145.03 21.8594C145.57 22.5938 146.32 22.9609 147.28 22.9609C148.241 22.9609 148.987 22.5859 149.519 21.8359C150.058 21.0859 150.327 19.9883 150.327 18.543C150.327 17.2617 150.05 16.2461 149.495 15.4961C148.948 14.7461 148.202 14.3711 147.257 14.3711C146.327 14.3711 145.589 14.7422 145.042 15.4844C144.495 16.2188 144.222 17.3203 144.222 18.7891ZM108.062 38.3281H102.742V53H99.8008V38.3281H94.5273V35.9375H108.062V38.3281ZM112.662 42.9219C112.287 42.8594 111.901 42.8281 111.502 42.8281C110.198 42.8281 109.319 43.3281 108.865 44.3281V53H106.018V40.3203H108.737L108.807 41.7383C109.494 40.6367 110.448 40.0859 111.666 40.0859C112.073 40.0859 112.408 40.1406 112.674 40.25L112.662 42.9219ZM118.446 53C118.321 52.7578 118.211 52.3633 118.118 51.8164C117.211 52.7617 116.102 53.2344 114.79 53.2344C113.516 53.2344 112.477 52.8711 111.672 52.1445C110.868 51.418 110.465 50.5195 110.465 49.4492C110.465 48.0977 110.965 47.0625 111.965 46.3438C112.973 45.6172 114.411 45.2539 116.278 45.2539H118.024V44.4219C118.024 43.7656 117.84 43.2422 117.473 42.8516C117.106 42.4531 116.547 42.2539 115.797 42.2539C115.149 42.2539 114.618 42.418 114.204 42.7461C113.79 43.0664 113.583 43.4766 113.583 43.9766H110.735C110.735 43.2812 110.965 42.6328 111.426 42.0312C111.887 41.4219 112.512 40.9453 113.301 40.6016C114.098 40.2578 114.985 40.0859 115.961 40.0859C117.446 40.0859 118.629 40.4609 119.512 41.2109C120.395 41.9531 120.848 43 120.872 44.3516V50.0703C120.872 51.2109 121.032 52.1211 121.352 52.8008V53H118.446ZM115.317 50.9492C115.879 50.9492 116.407 50.8125 116.899 50.5391C117.399 50.2656 117.774 49.8984 118.024 49.4375V47.0469H116.489C115.434 47.0469 114.641 47.2305 114.11 47.5977C113.579 47.9648 113.313 48.4844 113.313 49.1562C113.313 49.7031 113.493 50.1406 113.852 50.4688C114.219 50.7891 114.708 50.9492 115.317 50.9492ZM131.718 46.7891C131.718 48.75 131.272 50.3164 130.382 51.4883C129.491 52.6523 128.296 53.2344 126.796 53.2344C125.405 53.2344 124.292 52.7773 123.456 51.8633V57.875H120.608V40.3203H123.233L123.35 41.6094C124.186 40.5938 125.323 40.0859 126.76 40.0859C128.307 40.0859 129.518 40.6641 130.393 41.8203C131.276 42.9688 131.718 44.5664 131.718 46.6133V46.7891ZM128.882 46.543C128.882 45.2773 128.628 44.2734 128.12 43.5312C127.62 42.7891 126.901 42.418 125.964 42.418C124.8 42.418 123.964 42.8984 123.456 43.8594V49.4844C123.971 50.4688 124.815 50.9609 125.987 50.9609C126.893 50.9609 127.6 50.5977 128.108 49.8711C128.624 49.1367 128.882 48.0273 128.882 46.543ZM130.364 46.543C130.364 45.3008 130.61 44.1836 131.103 43.1914C131.595 42.1914 132.286 41.4258 133.177 40.8945C134.067 40.3555 135.091 40.0859 136.247 40.0859C137.958 40.0859 139.345 40.6367 140.407 41.7383C141.478 42.8398 142.056 44.3008 142.142 46.1211L142.153 46.7891C142.153 48.0391 141.911 49.1562 141.427 50.1406C140.95 51.125 140.263 51.8867 139.364 52.4258C138.474 52.9648 137.442 53.2344 136.27 53.2344C134.481 53.2344 133.048 52.6406 131.97 51.4531C130.899 50.2578 130.364 48.668 130.364 46.6836V46.543ZM133.212 46.7891C133.212 48.0938 133.481 49.1172 134.02 49.8594C134.56 50.5938 135.31 50.9609 136.27 50.9609C137.231 50.9609 137.978 50.5859 138.509 49.8359C139.048 49.0859 139.317 47.9883 139.317 46.543C139.317 45.2617 139.04 44.2461 138.485 43.4961C137.938 42.7461 137.192 42.3711 136.247 42.3711C135.317 42.3711 134.579 42.7422 134.032 43.4844C133.485 44.2188 133.212 45.3203 133.212 46.7891ZM102.004 74.4258H98.6992V81H95.7344V63.9375H101.734C103.703 63.9375 105.223 64.3789 106.293 65.2617C107.363 66.1445 107.898 67.4219 107.898 69.0938C107.898 70.2344 107.621 71.1914 107.066 71.9648C106.52 72.7305 105.754 73.3203 104.77 73.7344L108.602 80.8477V81H105.426L102.004 74.4258ZM98.6992 72.0469H101.746C102.746 72.0469 103.527 71.7969 104.09 71.2969C104.652 70.7891 104.934 70.0977 104.934 69.2227C104.934 68.3086 104.672 67.6016 104.148 67.1016C103.633 66.6016 102.859 66.3438 101.828 66.3281H98.6992V72.0469ZM106.662 74.543C106.662 73.3008 106.908 72.1836 107.401 71.1914C107.893 70.1914 108.584 69.4258 109.475 68.8945C110.365 68.3555 111.389 68.0859 112.545 68.0859C114.256 68.0859 115.643 68.6367 116.705 69.7383C117.776 70.8398 118.354 72.3008 118.44 74.1211L118.451 74.7891C118.451 76.0391 118.209 77.1562 117.725 78.1406C117.248 79.125 116.561 79.8867 115.662 80.4258C114.772 80.9648 113.74 81.2344 112.569 81.2344C110.78 81.2344 109.346 80.6406 108.268 79.4531C107.198 78.2578 106.662 76.668 106.662 74.6836V74.543ZM109.51 74.7891C109.51 76.0938 109.78 77.1172 110.319 77.8594C110.858 78.5938 111.608 78.9609 112.569 78.9609C113.53 78.9609 114.276 78.5859 114.807 77.8359C115.346 77.0859 115.615 75.9883 115.615 74.543C115.615 73.2617 115.338 72.2461 114.783 71.4961C114.237 70.7461 113.49 70.3711 112.545 70.3711C111.615 70.3711 110.877 70.7422 110.33 71.4844C109.783 72.2188 109.51 73.3203 109.51 74.7891ZM120.59 68.3203V82.125C120.59 83.4219 120.266 84.4102 119.618 85.0898C118.977 85.7773 118.036 86.1211 116.793 86.1211C116.27 86.1211 115.766 86.0547 115.282 85.9219V83.6719C115.579 83.7422 115.915 83.7773 116.29 83.7773C117.235 83.7773 117.719 83.2617 117.743 82.2305V68.3203H120.59ZM117.497 65.0273C117.497 64.5898 117.633 64.2266 117.907 63.9375C118.188 63.6484 118.586 63.5039 119.102 63.5039C119.618 63.5039 120.016 63.6484 120.297 63.9375C120.579 64.2266 120.719 64.5898 120.719 65.0273C120.719 65.457 120.579 65.8164 120.297 66.1055C120.016 66.3867 119.618 66.5273 119.102 66.5273C118.586 66.5273 118.188 66.3867 117.907 66.1055C117.633 65.8164 117.497 65.457 117.497 65.0273ZM119.87 74.543C119.87 73.3008 120.116 72.1836 120.608 71.1914C121.1 70.1914 121.792 69.4258 122.682 68.8945C123.573 68.3555 124.596 68.0859 125.753 68.0859C127.464 68.0859 128.85 68.6367 129.913 69.7383C130.983 70.8398 131.561 72.3008 131.647 74.1211L131.659 74.7891C131.659 76.0391 131.417 77.1562 130.932 78.1406C130.456 79.125 129.768 79.8867 128.87 80.4258C127.979 80.9648 126.948 81.2344 125.776 81.2344C123.987 81.2344 122.553 80.6406 121.475 79.4531C120.405 78.2578 119.87 76.668 119.87 74.6836V74.543ZM122.718 74.7891C122.718 76.0938 122.987 77.1172 123.526 77.8594C124.065 78.5938 124.815 78.9609 125.776 78.9609C126.737 78.9609 127.483 78.5859 128.014 77.8359C128.553 77.0859 128.823 75.9883 128.823 74.543C128.823 73.2617 128.546 72.2461 127.991 71.4961C127.444 70.7461 126.698 70.3711 125.753 70.3711C124.823 70.3711 124.085 70.7422 123.538 71.4844C122.991 72.2188 122.718 73.3203 122.718 74.7891Z" fill="white"/>
</svg>
