<svg width="90" height="90" viewBox="0 0 90 90" fill="none" xmlns="http://www.w3.org/2000/svg">
<path d="M0 12C0 6.34315 0 3.51472 1.75736 1.75736C3.51472 0 6.34315 0 12 0H78C83.6569 0 86.4853 0 88.2426 1.75736C90 3.51472 90 6.34315 90 12V78C90 83.6569 90 86.4853 88.2426 88.2426C86.4853 90 83.6569 90 78 90H12C6.34315 90 3.51472 90 1.75736 88.2426C0 86.4853 0 83.6569 0 78V12Z" fill="black"/>
<path d="M9 19C9 14.286 9 11.9289 10.4645 10.4645C11.9289 9 14.286 9 19 9H71.8551C76.6315 9 79.0197 9 80.4884 10.49C81.9571 11.98 81.9228 14.368 81.854 19.1439L81.12 70.1515C81.0997 71.5651 80.3744 72.8751 79.1872 73.6426L78.4595 74.1131C77.313 74.8542 75.8149 74.7503 74.7818 73.8578C73.1517 72.4498 70.6164 73.1118 69.8829 75.1371L69.1869 77.059C67.7302 81.0811 61.9679 80.8584 60.8261 76.7358C60.1691 74.3638 57.6911 72.995 55.3334 73.7016L55.2363 73.7307C54.2684 74.0208 53.231 73.976 52.2918 73.6036L49.2922 72.4141L49.1321 72.3649C47.7674 71.9449 47.085 71.7349 46.4282 71.7105C45.317 71.6692 44.2238 71.9995 43.3213 72.6492C42.7879 73.0332 42.336 73.5859 41.4321 74.6913C40.295 76.0819 39.7264 76.7772 39.0604 77.2053C37.9317 77.9307 36.5589 78.1721 35.2504 77.8752C34.4783 77.7 33.7067 77.2404 32.1634 76.321L26.5904 73.0013C25.5567 72.3855 25.0398 72.0776 24.5001 71.9039C23.5951 71.6126 22.6258 71.5853 21.7059 71.8253C21.1573 71.9684 20.6239 72.2468 19.5572 72.8035C16.7104 74.2892 15.287 75.032 14.1298 75.0621C12.1742 75.1128 10.3686 74.0185 9.50878 72.2612C9 71.2214 9 69.6158 9 66.4047V19Z" fill="#CC2D2D"/>
<path d="M22.2727 37.4416C22.2727 36.918 22.6972 36.4935 23.2208 36.4935C23.7444 36.4935 24.1688 36.918 24.1688 37.4416V70.7581C24.1688 71.1273 23.7761 71.3639 23.4498 71.1914C23.3065 71.1156 23.1351 71.1156 22.9918 71.1914C22.6654 71.3639 22.2727 71.1273 22.2727 70.7581V37.4416Z" fill="#982929"/>
<path d="M13 40.9481C13 40.4245 13.4245 40 13.9481 40C14.4716 40 14.8961 40.4245 14.8961 40.9481V74.2646C14.8961 74.6338 14.5034 74.8704 14.1771 74.6979C14.0338 74.6221 13.8623 74.6221 13.719 74.6979C13.3927 74.8704 13 74.6338 13 74.2646V40.9481Z" fill="#982929"/>
<path d="M75.9167 40.3647C75.9167 39.8411 76.3411 39.4167 76.8647 39.4167C77.3883 39.4167 77.8128 39.8411 77.8128 40.3647V73.6813C77.8128 74.0504 77.4201 74.287 77.0937 74.1145C76.9504 74.0388 76.779 74.0388 76.6357 74.1145C76.3093 74.287 75.9167 74.0504 75.9167 73.6813V40.3647Z" fill="#982929"/>
<path d="M35.5455 42.1818C35.5455 41.6582 35.9699 41.2338 36.4935 41.2338C37.0171 41.2338 37.4416 41.6582 37.4416 42.1818V76.4444C37.4416 76.8122 37.0482 77.0462 36.725 76.8707C36.5806 76.7924 36.4064 76.7924 36.2621 76.8707C35.9388 77.0462 35.5455 76.8122 35.5455 76.4444V42.1818Z" fill="#982929"/>
<path d="M44 38C44 37.4477 44.4477 37 45 37C45.5523 37 46 37.4477 46 38V71.1459C46 71.5383 45.587 71.7935 45.2361 71.618C45.0875 71.5437 44.9125 71.5437 44.7639 71.618C44.413 71.7935 44 71.5383 44 71.1459V38Z" fill="#982929"/>
<path d="M53 39.9481C53 39.4245 53.4245 39 53.9481 39C54.4716 39 54.8961 39.4245 54.8961 39.9481V73.2646C54.8961 73.6338 54.5034 73.8704 54.1771 73.6979C54.0338 73.6221 53.8623 73.6221 53.719 73.6979C53.3927 73.8704 53 73.6338 53 73.2646V39.9481Z" fill="#982929"/>
<path d="M64 44.9481C64 44.4245 64.4245 44 64.9481 44C65.4716 44 65.8961 44.4245 65.8961 44.9481V79.2106C65.8961 79.5784 65.5028 79.8125 65.1795 79.637C65.0352 79.5586 64.861 79.5586 64.7166 79.637C64.3933 79.8125 64 79.5784 64 79.2106V44.9481Z" fill="#982929"/>
<path d="M71 39.9519C71 39.4262 71.4262 39 71.9519 39C72.4746 39 72.8995 39.4215 72.9037 39.9442L73.165 72.3801C73.1687 72.8445 72.7145 73.1747 72.2739 73.0278L72.1099 72.9732C71.9627 72.9241 71.8005 72.9639 71.6927 73.0755C71.441 73.3362 71 73.1581 71 72.7958V39.9519Z" fill="#982929"/>
<path d="M63 37.2131C63 42.656 63 46.1711 46.5872 67.9083C45.861 68.87 45.498 69.3508 45 69.3508C44.502 69.3508 44.139 68.87 43.4128 67.9083C27 46.1711 27 42.656 27 37.2131C27 27.7066 35.0589 20 45 20C54.9411 20 63 27.7066 63 37.2131Z" fill="#040404"/>
<ellipse cx="45.11" cy="38.1111" rx="11.11" ry="11.1111" fill="#CC2D2D"/>
</svg>
